# xmcd
#
# Track frame offsets: 
#        150
#        21232
#        42004
#        61759
#        83406
#        99953
#        117245
#        132354
#        153872
#        168839
#        188239
#        208219
#        224955
#        243162
#        260052
#        272362
#        289549
#
# Disc length: 4096 seconds
#
# Revision: 0
# Processed by: cddbd v1.5.2PL0 Copyright (c) Steve Scherf et al.
# Submitted via: ExactAudioCopy v0.99pb4
#
DISCID=e80ffe11
DTITLE=Hari - My life for love
DYEAR=2009
DGENRE=Blues
TTITLE0=I am a good woman
TTITLE1=Run Run Run
TTITLE2=Whom to ask
TTITLE3=Wenn du denkst
TTITLE4=Hi sgarden
TTITLE5=You're kidding me
TTITLE6=October
TTITLE7=Daydreaming
TTITLE8=Be quiet
TTITLE9=Nichts bleibt (von dir)
TTITLE10=My life for love
TTITLE11=Is it enough
TTITLE12=Please Please Please
TTITLE13=Welcome the blues
TTITLE14=You are beautiful
TTITLE15=Temptation
TTITLE16=Remember me
EXTD=
EXTT0=
EXTT1=
EXTT2=
EXTT3=
EXTT4=
EXTT5=
EXTT6=
EXTT7=
EXTT8=
EXTT9=
EXTT10=
EXTT11=
EXTT12=
EXTT13=
EXTT14=
EXTT15=
EXTT16=
PLAYORDER=
